<svg xmlns="http://www.w3.org/2000/svg" viewBox="0 0 54 52">
  <path d="M22.9 22.4c-1.3 0-2.5-.7-3.1-1.9-.9-1.7-.2-3.8 1.6-4.7.5-.2 1-.4 1.6-.4 1.3 0 2.5.7 3.1 1.9.9 1.7.2 3.8-1.5 4.7-.6.2-1.2.4-1.7.4m-4.1 7.1h-.2c-1.9-.1-3.4-1.8-3.3-3.7.1-1.9 1.8-3.4 3.7-3.3 1.9.1 3.4 1.8 3.3 3.7-.2 1.9-1.7 3.3-3.5 3.3m4.1 7.1c-.7 0-1.3-.2-1.9-.6-.8-.5-1.3-1.3-1.5-2.2-.2-.9 0-1.8.5-2.6.6-1 1.7-1.6 2.9-1.6.7 0 1.3.2 1.9.6.8.5 1.3 1.3 1.5 2.2.2.9 0 1.8-.5 2.6-.6 1.1-1.7 1.6-2.9 1.6m8.2 0c-1.3 0-2.5-.7-3.1-1.9-.4-.8-.5-1.8-.2-2.7.3-.9.9-1.6 1.7-2 .5-.2 1-.4 1.6-.4 1.3 0 2.5.7 3.1 1.9.9 1.7.2 3.8-1.6 4.7-.4.3-.9.4-1.5.4m4.2-7.1h-.2c-1.9-.1-3.4-1.8-3.3-3.7.1-1.9 1.8-3.4 3.7-3.3.9.1 1.8.5 2.4 1.2.6.7.9 1.6.9 2.5-.2 1.8-1.7 3.3-3.5 3.3m-4.2-7.2c-.7 0-1.3-.2-1.9-.6-1.6-1.1-2.1-3.2-1-4.8.6-1 1.7-1.6 2.9-1.6.7 0 1.3.2 1.9.6 1.6 1.1 2.1 3.2 1 4.8-.6 1.1-1.7 1.6-2.9 1.6M19.4 9.4c.4.9.1 1.9-.8 2.3-.9.4-1.9.1-2.3-.8-.5-.8-.1-1.9.7-2.3.9-.5 1.9-.1 2.4.8M8.8 24.3c1 .1 1.7.9 1.6 1.8-.1 1-.9 1.7-1.8 1.6-1-.1-1.7-.9-1.6-1.8 0-.9.8-1.7 1.8-1.6m7.6 16.6c.5-.8 1.6-1 2.4-.5.8.5 1 1.6.5 2.4-.5.8-1.6 1-2.4.5-.8-.5-1-1.6-.5-2.4m18.2 1.7c-.4-.9-.1-1.9.8-2.3.9-.4 1.9-.1 2.3.8.4.9.1 1.9-.8 2.3-.8.5-1.8.1-2.3-.8m10.6-14.9c-1-.1-1.7-.9-1.6-1.8.1-1 .9-1.7 1.8-1.6 1 .1 1.7.9 1.6 1.8 0 .9-.8 1.7-1.8 1.6m-7.6-16.6c-.5.8-1.6 1-2.4.5-.8-.5-1-1.6-.5-2.4.5-.8 1.6-1 2.4-.5.8.5 1 1.6.5 2.4M15.5 4c.3.6.1 1.2-.5 1.5-.6.3-1.2.1-1.5-.5-.3-.6-.1-1.2.5-1.5.6-.3 1.3-.1 1.5.5M2.2 24.9c.6 0 1.1.6 1.1 1.2s-.6 1.1-1.2 1.1C1.5 27.1 1 26.6 1 26c.1-.6.6-1.1 1.2-1.1m11.5 22c.3-.5 1-.7 1.6-.3.5.3.7 1 .3 1.6-.3.5-1 .7-1.6.3-.5-.3-.7-1-.3-1.6M38.5 48c-.3-.6-.1-1.2.5-1.5.6-.3 1.2-.1 1.5.5.3.6.1 1.2-.5 1.5-.6.3-1.3.1-1.5-.5m13.3-20.9c-.6 0-1.1-.6-1.1-1.2s.6-1.1 1.2-1.1 1.1.6 1.1 1.2c-.1.6-.6 1.1-1.2 1.1m-11.5-22c-.3.5-1 .7-1.6.3-.5-.3-.7-1-.3-1.6.3-.5 1-.7 1.6-.3.5.3.7 1 .3 1.6M15.9 17.2c.9.6 1.2 1.9.6 2.8-.6 1-1.9 1.2-2.8.6-.9-.6-1.2-1.9-.6-2.8.6-.9 1.8-1.2 2.8-.6m-2 14.1c1-.5 2.3-.1 2.8.9s.1 2.3-.9 2.8-2.3.1-2.8-.9c-.6-1.1-.2-2.3.9-2.8M24.8 40c.1-1.1 1-2 2.2-1.9 1.1.1 2 1 1.9 2.2-.1 1.1-1 2-2.2 1.9-1.1-.1-1.9-1.1-1.9-2.2m13.3-5.2c-1-.6-1.2-1.9-.6-2.9.6-.9 1.9-1.2 2.8-.6 1 .6 1.2 1.9.6 2.8-.6 1-1.8 1.3-2.8.7m2-14.1c-1 .5-2.3.1-2.8-.9s-.1-2.2.9-2.8c1-.5 2.3-.1 2.8.9.6 1.1.2 2.3-.9 2.8M29 12c-.1 1.1-1 2-2.2 1.9-1.1-.1-2-1-1.9-2.2s1-2 2.2-1.9c1.1.1 2 1.1 1.9 2.2M8.2 13.6c.7.4.9 1.3.4 2-.4.7-1.3.9-2 .4-.7-.4-.9-1.3-.4-2s1.4-.9 2-.4M6.8 36c.7-.4 1.6-.1 1.9.6.4.7.1 1.6-.6 1.9-.7.5-1.5.2-1.9-.5s-.1-1.6.6-2m18.7 12.5c0-.8.7-1.4 1.5-1.4s1.4.7 1.4 1.5-.7 1.4-1.5 1.4c-.9 0-1.5-.7-1.4-1.5m20.3-10.1c-.7-.4-.9-1.3-.4-2 .4-.7 1.3-.9 2-.4.7.4.8 1.3.4 2-.5.7-1.4.9-2 .4M47.2 16c-.7.4-1.6.1-1.9-.6-.4-.7-.1-1.6.6-1.9.7-.4 1.6-.1 1.9.6.4.6.1 1.5-.6 1.9M28.4 3.5c0 .8-.7 1.4-1.5 1.4s-1.4-.7-1.4-1.5S26.2 2 27 2s1.4.7 1.4 1.5" opacity=".3"/>
</svg>
